# xmcd
#
# Track frame offsets:
#	150
#	12413
#	25880
#	40960
#	52699
#	67802
#	86357
#	97598
#	109500
#	127825
#	143800
#	158138
#	172975
#	190915
#
# Disc length: 2752 seconds
#
# Revision: 0
# Processed by: cddbd v1.5.1PL0 Copyright (c) Steve Scherf et al.
# Submitted via: dBpowerAMP V4.0
#
DISCID=9b0abe0e
DTITLE=Carlos Henrique and Emiliano - Carlos Henrique and Emiliano
DYEAR=1900
DGENRE=Country
TTITLE0=vida de peao
TTITLE1=hoje a cobra vai fumar
TTITLE2=Atire a Primeira pedra
TTITLE3=to querendo voce
TTITLE4=Feito espora
TTITLE5=Na sitonia do amor
TTITLE6=Amor e paixao
TTITLE7=Saudade metida a besta
TTITLE8=Um pouquinho so 
TTITLE9=Mete cerveja no povo
TTITLE10=Pra te amar dobrado
TTITLE11=Dor de saudade
TTITLE12=Pelo amor de deus
TTITLE13=A figura do velho
EXTD=
EXTT0=
EXTT1=
EXTT2=
EXTT3=
EXTT4=
EXTT5=
EXTT6=
EXTT7=
EXTT8=
EXTT9=
EXTT10=
EXTT11=
EXTT12=
EXTT13=
PLAYORDER=
